# xmcd CD database file
#
# Track frame offsets:
#	150
#	10372
#	23053
#	40071
#	54935
#	71032
#	84080
#	93306
#	100222
#	116496
#	132225
#	152527
#	163908
#	175779
#
# Disc length: 2475 seconds
#
# Revision: 0
# Processed by: cddbd v1.4PL0 Copyright (c) Steve Scherf et al.
# Submitted via: CDex 1.50Beta7
#
DISCID=a409a90e
DTITLE=Bob Flesher - Minstrel Banjo
DYEAR=1900
DGENRE=Country
TTITLE0=Coon Hunt Walk-Arounf and Bee Gum Reel
TTITLE1=I'm guin Ober De Mountain
TTITLE2=Wake Nicodemus
TTITLE3=Origin Of de Banjo
TTITLE4=De History of de World
TTITLE5=Get Away Gumbo, Sound Your Horn and De Bones in de Barnyard
TTITLE6=Nicodemus Johnson
TTITLE7=Sugar Cane Dance
TTITLE8=Walk Jawbone
TTITLE9=De Old Banjo
TTITLE10=Bluetail Fly and Kick Up de Debble On a Holiday
TTITLE11=Josephus Orange Blossom
TTITLE12=Old Virginny Jig and Grape Vine Reel
TTITLE13=Rose of Alabama
EXTD=
EXTT0=
EXTT1=
EXTT2=
EXTT3=
EXTT4=
EXTT5=
EXTT6=
EXTT7=
EXTT8=
EXTT9=
EXTT10=
EXTT11=
EXTT12=
EXTT13=
PLAYORDER=
